<?xml version="1.0" encoding="utf-8"?>
<!-- Generator: Adobe Illustrator 16.0.0, SVG Export Plug-In . SVG Version: 6.00 Build 0)  -->
<svg version="1.2" baseProfile="tiny" id="Layer_1" xmlns="http://www.w3.org/2000/svg" xmlns:xlink="http://www.w3.org/1999/xlink"
	 x="0px" y="0px" width="100px" height="auto" viewBox="0 0 146 174" xml:space="preserve">
<g>
	<path fill="#FFFFFF" d="M49.472,124.012l-1.512-4.067H37.666l-1.512,4.067h-5.795l9.25-24.009h6.407l9.251,24.009H49.472z
		 M42.813,105.115l-3.743,10.331h7.486L42.813,105.115z"/>
	<path fill="#FFFFFF" d="M81.297,124.012l-1.512-4.067H69.49l-1.512,4.067h-5.795l9.25-24.009h6.407l9.252,24.009H81.297z
		 M74.637,105.115l-3.743,10.331h7.487L74.637,105.115z"/>
	<path fill="#FFFFFF" d="M94.619,120.628l2.807-3.995c1.693,1.764,4.32,3.275,7.631,3.275c2.844,0,4.176-1.26,4.176-2.664
		c0-4.175-13.822-1.26-13.822-10.295c0-3.995,3.457-7.307,9.107-7.307c3.816,0,6.982,1.152,9.359,3.348l-2.844,3.815
		c-1.943-1.8-4.535-2.627-6.984-2.627c-2.158,0-3.383,0.936-3.383,2.375c0,3.78,13.787,1.224,13.787,10.187
		c0,4.391-3.168,7.703-9.611,7.703C100.197,124.444,96.887,122.896,94.619,120.628z"/>
</g>
<g>
	<path fill="#FFFFFF" d="M22.615,147.671v-9.343h4.594c1.723,0,2.662,1.064,2.662,2.381c0,1.163-0.756,1.961-1.625,2.144
		c1.009,0.154,1.807,1.148,1.807,2.283c0,1.457-0.953,2.535-2.718,2.535H22.615z M28.189,140.976c0-0.687-0.476-1.205-1.303-1.205
		h-2.633v2.409h2.633C27.713,142.18,28.189,141.689,28.189,140.976z M28.372,144.926c0-0.701-0.49-1.303-1.415-1.303h-2.704v2.605
		h2.704C27.839,146.229,28.372,145.738,28.372,144.926z"/>
	<path fill="#FFFFFF" d="M37.301,143.973v-5.645h1.667v5.603c0,1.485,0.826,2.451,2.381,2.451c1.555,0,2.381-0.966,2.381-2.451
		v-5.603h1.667v5.645c0,2.312-1.331,3.866-4.048,3.866C38.646,147.839,37.301,146.284,37.301,143.973z"/>
	<path fill="#FFFFFF" d="M52.98,147.671v-9.343h1.639v9.343H52.98z"/>
	<path fill="#FFFFFF" d="M62.094,147.671v-9.343h1.639v7.9h4.118v1.442H62.094z"/>
	<path fill="#FFFFFF" d="M74.89,147.671v-9.343h3.475c2.928,0,4.889,1.933,4.889,4.664c0,2.76-1.961,4.679-4.875,4.679H74.89z
		 M81.571,142.992c0-1.793-1.12-3.222-3.193-3.222h-1.849v6.458h1.835C80.396,146.229,81.571,144.771,81.571,142.992z"/>
	<path fill="#FFFFFF" d="M90.43,147.671v-9.343h1.64v9.343H90.43z"/>
	<path fill="#FFFFFF" d="M106.169,147.671l-4.874-6.682v6.682h-1.64v-9.343h1.682l4.776,6.472v-6.472h1.639v9.343H106.169z"/>
	<path fill="#FFFFFF" d="M114.93,143.007c0-2.942,2.186-4.833,4.903-4.833c1.82,0,3.012,0.868,3.754,1.933l-1.331,0.771
		c-0.504-0.7-1.387-1.246-2.423-1.246c-1.85,0-3.222,1.4-3.222,3.376c0,1.946,1.372,3.375,3.222,3.375
		c0.952,0,1.793-0.434,2.213-0.84v-1.443h-2.802v-1.442h4.427v3.488c-0.91,1.022-2.228,1.708-3.838,1.708
		C117.115,147.853,114.93,145.934,114.93,143.007z"/>
</g>
<g>
	<path fill-rule="evenodd" fill="#FFFFFF" d="M31.543,89.048c0,0,15.813-4.588,39.993-4.588c14.517-0.361,34.966,2.347,42.921,5.297
		c0,0-17.93-3.044-42.818-2.924C52.9,86.921,31.543,89.048,31.543,89.048z"/>
</g>
<g>
	<g>
		<polyline fill="#FFFFFF" points="61.852,53.689 61.979,85.275 53.684,85.266 53.487,58.713 60.875,52.34 		"/>
	</g>
	<g>
		<polygon fill="#FFFFFF" points="92.513,85.252 86.536,85.252 86.536,60.546 92.513,65.021 		"/>
	</g>
	<g>
		<polygon fill="#FFFFFF" points="58.97,85.174 58.886,49.687 64.344,44.715 70.871,48.869 70.824,77.562 69.881,78.287
			69.803,49.687 64.755,46.509 64.809,85.243 		"/>
	</g>
	<g>
		<polyline fill="#FFFFFF" points="64.755,46.509 64.809,85.243 58.97,85.228 58.886,49.687 64.344,44.715 		"/>
	</g>
	<g>
		<polygon fill="#FFFFFF" points="86.917,85.314 87.001,56.837 81.54,52.859 75.015,56.183 75.056,78.018 76.075,78.669
			76.083,56.837 81.132,54.296 81.132,85.529 		"/>
	</g>
	<g>
		<polygon fill="#FFFFFF" points="74.854,43.119 70.979,43.119 72.918,27.809 72.918,27.809 		"/>
	</g>
	<g>
		<rect x="70.555" y="37.923" fill="#FFFFFF" width="4.905" height="9.252"/>
	</g>
	<g>
		<polyline fill="#FFFFFF" points="81.54,52.785 75.015,56.108 75.056,77.944 76.075,78.596 76.083,56.764 81.132,54.223 		"/>
	</g>
	<g>
		<polygon fill="#FFFFFF" points="76.063,85.285 72.707,85.301 69.794,85.285 69.794,41.092 76.063,41.092 		"/>
	</g>
	<g>
		<polygon fill="#FFFFFF" points="76.063,85.285 72.707,85.301 69.794,85.285 69.794,41.092 76.063,41.092 		"/>
	</g>
	<g>
		<polyline fill="#FFFFFF" points="72.918,27.809 72.918,27.809 71.637,37.923 70.555,37.923 70.555,41.092 69.794,41.092
			69.794,85.285 72.707,85.301 		"/>
	</g>
	<g>
		<polygon fill="#FFFFFF" points="66.965,49.862 67.477,50.33 67.477,85.377 66.965,85.377 		"/>
	</g>
	<g>
		<polygon fill="#FFFFFF" points="78.519,56.872 78.011,57.321 78.011,85.334 78.519,85.334 		"/>
	</g>
</g>
</svg>
