<?xml version="1.0" encoding="utf-8"?>
<!-- Generator: Adobe Illustrator 16.0.0, SVG Export Plug-In . SVG Version: 6.00 Build 0)  -->
<svg version="1.2" baseProfile="tiny" id="Layer_1" xmlns="http://www.w3.org/2000/svg" xmlns:xlink="http://www.w3.org/1999/xlink"
	 x="0px" y="0px" width="116.666px" height="99.333px" viewBox="0 0 116.666 99.333" xml:space="preserve">
<path fill-rule="evenodd" fill="#FFFFFF" d="M17.543,75.714c0,0,15.813-4.588,39.993-4.588c14.517-0.361,34.966,2.347,42.921,5.297
	c0,0-17.93-3.044-42.818-2.924C38.9,73.587,17.543,75.714,17.543,75.714z"/>
<g>
	<polyline fill="#FFFFFF" points="47.852,40.356 47.979,71.941 39.684,71.932 39.487,45.38 46.875,39.006 	"/>
	<polygon fill="#FFFFFF" points="78.513,71.918 72.536,71.918 72.536,47.212 78.513,51.688 	"/>
	<polygon fill="#FFFFFF" points="44.97,71.84 44.886,36.354 50.344,31.382 56.871,35.535 56.824,64.228 55.881,64.953 
		55.803,36.354 50.755,33.175 50.809,71.909 	"/>
	<polyline fill="#FFFFFF" points="50.755,33.175 50.809,71.909 44.97,71.895 44.886,36.354 50.344,31.382 	"/>
	<polygon fill="#FFFFFF" points="72.917,71.981 73.001,43.504 67.54,39.526 61.015,42.85 61.056,64.684 62.075,65.335 
		62.083,43.504 67.132,40.962 67.132,72.196 	"/>
	<polygon fill="#FFFFFF" points="60.854,29.785 56.979,29.785 58.918,14.475 58.918,14.475 	"/>
	<rect x="56.555" y="24.589" fill="#FFFFFF" width="4.905" height="9.252"/>
	<polyline fill="#FFFFFF" points="67.54,39.451 61.015,42.775 61.056,64.61 62.075,65.263 62.083,43.431 67.132,40.889 	"/>
	<polygon fill="#FFFFFF" points="62.063,71.951 58.707,71.967 55.794,71.951 55.794,27.759 62.063,27.759 	"/>
	<polygon fill="#FFFFFF" points="62.063,71.951 58.707,71.967 55.794,71.951 55.794,27.759 62.063,27.759 	"/>
	<polyline fill="#FFFFFF" points="58.918,14.475 58.918,14.475 57.637,24.589 56.555,24.589 56.555,27.759 55.794,27.759 
		55.794,71.951 58.707,71.967 	"/>
	<polygon fill="#FFFFFF" points="52.965,36.529 53.477,36.997 53.477,72.044 52.965,72.044 	"/>
	<polygon fill="#FFFFFF" points="64.519,43.538 64.011,43.988 64.011,72.001 64.519,72.001 	"/>
</g>
</svg>
