<?xml version="1.0" encoding="utf-8"?>
<!-- Generator: Adobe Illustrator 16.0.0, SVG Export Plug-In . SVG Version: 6.00 Build 0)  -->
<svg version="1.2" baseProfile="tiny" id="Layer_1" xmlns="http://www.w3.org/2000/svg" xmlns:xlink="http://www.w3.org/1999/xlink"
	 x="0px" y="0px" width="238.488px" height="272.986px" viewBox="0 0 238.488 272.986" xml:space="preserve">
<g>
	<path fill="#303C66" d="M74.666,205.305l-2.786-7.496H52.906l-2.786,7.496h-10.68l17.048-44.249h11.809l17.05,44.249H74.666z
		 M62.393,170.477l-6.899,19.039h13.798L62.393,170.477z"/>
	<path fill="#303C66" d="M133.319,205.305l-2.786-7.496h-18.975l-2.786,7.496H98.092l17.049-44.249h11.808L144,205.305H133.319z
		 M121.045,170.477l-6.898,19.039h13.799L121.045,170.477z"/>
	<path fill="#303C66" d="M157.874,199.069l5.172-7.363c3.121,3.252,7.963,6.037,14.064,6.037c5.24,0,7.695-2.322,7.695-4.908
		c0-7.695-25.475-2.322-25.475-18.975c0-7.363,6.371-13.467,16.785-13.467c7.033,0,12.869,2.123,17.25,6.17l-5.242,7.031
		c-3.58-3.316-8.357-4.842-12.871-4.842c-3.979,0-6.234,1.725-6.234,4.379c0,6.965,25.41,2.256,25.41,18.773
		c0,8.094-5.84,14.197-17.715,14.197C168.153,206.102,162.051,203.25,157.874,199.069z"/>
</g>
<g>
	<path fill="#303C66" d="M37.97,245.221v-13.523h6.65c2.494,0,3.853,1.541,3.853,3.447c0,1.682-1.095,2.838-2.353,3.102
		c1.461,0.225,2.616,1.662,2.616,3.305c0,2.109-1.379,3.67-3.934,3.67H37.97z M46.039,235.53c0-0.994-0.689-1.744-1.885-1.744
		h-3.812v3.488h3.812C45.35,237.274,46.039,236.565,46.039,235.53z M46.303,241.249c0-1.014-0.71-1.887-2.048-1.887h-3.913v3.771
		h3.913C45.533,243.133,46.303,242.422,46.303,241.249z"/>
	<path fill="#303C66" d="M61.263,239.87v-8.172h2.413v8.109c0,2.15,1.196,3.551,3.447,3.551s3.448-1.4,3.448-3.551v-8.109h2.413
		v8.172c0,3.346-1.927,5.596-5.86,5.596C63.209,245.465,61.263,243.215,61.263,239.87z"/>
	<path fill="#303C66" d="M85.996,245.221v-13.523h2.373v13.523H85.996z"/>
	<path fill="#303C66" d="M101.221,245.221v-13.523h2.373v11.436h5.961v2.088H101.221z"/>
	<path fill="#303C66" d="M121.777,245.221v-13.523h5.028c4.237,0,7.075,2.797,7.075,6.752c0,3.994-2.838,6.771-7.056,6.771H121.777z
		 M131.449,238.45c0-2.596-1.623-4.664-4.624-4.664h-2.676v9.348h2.656C129.745,243.133,131.449,241.024,131.449,238.45z"/>
	<path fill="#303C66" d="M146.309,245.221v-13.523h2.371v13.523H146.309z"/>
	<path fill="#303C66" d="M171.124,245.221l-7.057-9.672v9.672h-2.371v-13.523h2.434l6.912,9.369v-9.369h2.373v13.523H171.124z"/>
	<path fill="#303C66" d="M185.84,238.471c0-4.26,3.164-6.996,7.098-6.996c2.637,0,4.357,1.256,5.434,2.799l-1.926,1.113
		c-0.73-1.014-2.008-1.803-3.508-1.803c-2.678,0-4.664,2.025-4.664,4.887c0,2.816,1.986,4.887,4.664,4.887
		c1.377,0,2.594-0.631,3.203-1.217v-2.09h-4.055v-2.088h6.406v5.049c-1.316,1.479-3.223,2.473-5.555,2.473
		C189.004,245.485,185.84,242.708,185.84,238.471z"/>
</g>
<g>
	<path fill-rule="evenodd" fill="#303C66" d="M41.622,140.866c0,0,29.145-8.456,73.708-8.456
		c26.754-0.665,64.444,4.325,79.104,9.762c0,0-33.045-5.61-78.915-5.39C80.984,136.946,41.622,140.866,41.622,140.866z"/>
</g>
<g>
	<g>
		<polyline fill="#303C66" points="97.481,75.699 97.715,133.912 82.428,133.895 82.065,84.958 95.682,73.212 		"/>
	</g>
	<g>
		<polygon fill="#303C66" points="153.991,133.87 142.975,133.87 142.975,88.336 153.991,96.583 		"/>
	</g>
	<g>
		<polygon fill="#303C66" points="92.17,133.726 92.015,68.323 102.074,59.16 114.104,66.814 114.018,119.696 112.279,121.032
			112.136,68.323 102.832,62.465 102.931,133.853 		"/>
	</g>
	<g>
		<polyline fill="#303C66" points="102.832,62.465 102.931,133.853 92.17,133.826 92.015,68.323 102.074,59.16 		"/>
	</g>
	<g>
		<polygon fill="#303C66" points="143.678,133.985 143.833,81.501 133.768,74.169 121.741,80.295 121.816,120.537 123.695,121.737
			123.71,81.501 133.016,76.817 133.016,134.381 		"/>
	</g>
	<g>
		<polygon fill="#303C66" points="121.446,56.217 114.303,56.217 117.877,28 117.877,28 		"/>
	</g>
	<g>
		<rect x="113.521" y="46.641" fill="#303C66" width="9.04" height="17.053"/>
	</g>
	<g>
		<polyline fill="#303C66" points="133.768,74.032 121.741,80.157 121.816,120.401 123.695,121.603 123.71,81.366 133.016,76.682
			"/>
	</g>
	<g>
		<polygon fill="#303C66" points="123.674,133.93 117.488,133.959 112.119,133.93 112.119,52.482 123.674,52.482 		"/>
	</g>
	<g>
		<polygon fill="#303C66" points="123.674,133.93 117.488,133.959 112.119,133.93 112.119,52.482 123.674,52.482 		"/>
	</g>
	<g>
		<polyline fill="#303C66" points="117.877,28 117.877,28 115.516,46.641 113.521,46.641 113.521,52.482 112.119,52.482
			112.119,133.93 117.488,133.959 		"/>
	</g>
	<g>
		<polygon fill="#303C66" points="106.905,68.646 107.849,69.508 107.849,134.101 106.905,134.101 		"/>
	</g>
	<g>
		<polygon fill="#303C66" points="128.199,81.564 127.263,82.393 127.263,134.022 128.199,134.022 		"/>
	</g>
</g>
</svg>
